/* XPM */
static char * 3D_xpm[] = {
"30 30 384 2",
"  	c None",
". 	c #546492",
"+ 	c #0C111F",
"@ 	c #2152E2",
"# 	c #0B0F1C",
"$ 	c #1D3374",
"% 	c #1D4EE1",
"& 	c #244197",
"* 	c #305EE7",
"= 	c #1342D0",
"- 	c #070A14",
"; 	c #16191E",
"> 	c #6085D5",
", 	c #486DD1",
"' 	c #21293B",
") 	c #353535",
"! 	c #778477",
"~ 	c #BADDBB",
"{ 	c #C8EEC9",
"] 	c #1D4FE2",
"^ 	c #9ABFF1",
"/ 	c #B4D5EE",
"( 	c #80909B",
"_ 	c #4E5050",
": 	c #323232",
"< 	c #788178",
"[ 	c #B2D4B3",
"} 	c #BFE5C0",
"| 	c #C7EEC9",
"1 	c #C8EECA",
"2 	c #1D4EE2",
"3 	c #B9DCF7",
"4 	c #B3D4ED",
"5 	c #B0D1EA",
"6 	c #8E9DA7",
"7 	c #3D3D3E",
"8 	c #181818",
"9 	c #757B75",
"0 	c #A9C8AA",
"a 	c #BEE6BF",
"b 	c #C4EDC5",
"c 	c #C0E4C1",
"d 	c #C3E7C5",
"e 	c #C5E7C6",
"f 	c #97BAEA",
"g 	c #B7D8F1",
"h 	c #B3D4EE",
"i 	c #B7DBF6",
"j 	c #B0D3ED",
"k 	c #A8C9E0",
"l 	c #859199",
"m 	c #454546",
"n 	c #161616",
"o 	c #656965",
"p 	c #9CB69D",
"q 	c #BDE7BE",
"r 	c #BFE9C1",
"s 	c #BFE7C1",
"t 	c #C2E8C3",
"u 	c #BDE0BE",
"v 	c #C8EDCA",
"w 	c #CBEFCD",
"x 	c #9CC0F1",
"y 	c #B9DAF3",
"z 	c #B0D0E7",
"A 	c #B5D8F2",
"B 	c #B1D4ED",
"C 	c #B4DAF5",
"D 	c #B2D9F5",
"E 	c #A1BFD4",
"F 	c #818C93",
"G 	c #151515",
"H 	c #9AB49B",
"I 	c #BAE6BB",
"J 	c #B9E3BA",
"K 	c #C0ECC2",
"L 	c #BFE8C1",
"M 	c #BCE0BD",
"N 	c #C4EAC5",
"O 	c #C2E6C4",
"P 	c #CBEFCC",
"Q 	c #CDEFCE",
"R 	c #9CC0F2",
"S 	c #BCDDF7",
"T 	c #B5D5EE",
"U 	c #B6D8F2",
"V 	c #AFCFE7",
"W 	c #B5DAF5",
"X 	c #AED2EC",
"Y 	c #B0D8F4",
"Z 	c #5A6872",
"` 	c #212521",
" .	c #BCEABD",
"..	c #BEEBBF",
"+.	c #B9E2BA",
"@.	c #BDE5BE",
"#.	c #BDE4BF",
"$.	c #C1E8C3",
"%.	c #C3E6C5",
"&.	c #CAECCB",
"*.	c #C7E7C9",
"=.	c #99BBEB",
"-.	c #BBDCF5",
";.	c #B6D6EE",
">.	c #BADCF7",
",.	c #B2D4ED",
"'.	c #B0D4EE",
").	c #5E6E79",
"!.	c #212621",
"~.	c #BDEABE",
"{.	c #BBE5BC",
"].	c #B8DEB9",
"^.	c #C2EBC3",
"/.	c #C3EAC4",
"(.	c #C3E8C4",
"_.	c #C9EECB",
":.	c #C0E0C1",
"<.	c #C9EACA",
"[.	c #CFF0D0",
"}.	c #9EC0F1",
"|.	c #BAD9F1",
"1.	c #B3D1E8",
"2.	c #BADDF7",
"3.	c #B5D9F4",
"4.	c #ABCEE7",
"5.	c #AFD5F0",
"6.	c #202521",
"7.	c #B8E2B9",
"8.	c #BEE9C0",
"9.	c #BCE4BD",
"0.	c #C4EBC5",
"a.	c #C0E3C2",
"b.	c #C4E6C5",
"c.	c #C6E7C7",
"d.	c #CEF0D0",
"e.	c #D0F1D2",
"f.	c #9FC1F2",
"g.	c #BFDFF8",
"h.	c #B7D5ED",
"i.	c #B2D1E9",
"j.	c #B8DCF6",
"k.	c #AFD3EC",
"l.	c #B1D7F2",
"m.	c #5D6B76",
"n.	c #BFEBC0",
"o.	c #C1ECC2",
"p.	c #BDE4BE",
"q.	c #C2EAC4",
"r.	c #BFE3C1",
"s.	c #C4E7C5",
"t.	c #C7E7C8",
"u.	c #CFF0D1",
"v.	c #CCEBCE",
"w.	c #9DBEEE",
"x.	c #C0DFF7",
"y.	c #B8D7EE",
"z.	c #B4D4EC",
"A.	c #B6D9F3",
"B.	c #B4DAF6",
"C.	c #5E6E7A",
"D.	c #C0EBC1",
"E.	c #C1ECC3",
"F.	c #BADEBB",
"G.	c #C2E8C4",
"H.	c #C6EBC8",
"I.	c #C6E9C8",
"J.	c #C7E6C9",
"K.	c #CAE8CB",
"L.	c #D0EFD2",
"M.	c #9EBFEF",
"N.	c #BBD8EF",
"O.	c #B9D7EF",
"P.	c #BDDEF7",
"Q.	c #BADCF6",
"R.	c #B5D7F0",
"S.	c #AECFE6",
"T.	c #5F6E7A",
"U.	c #BEE5BF",
"V.	c #BFE5C1",
"W.	c #C7ECC9",
"X.	c #C5E7C7",
"Y.	c #C5E2C6",
"Z.	c #D1F1D3",
"`.	c #D3F2D5",
" +	c #A1C2F2",
".+	c #C1E0F8",
"++	c #B6D3E8",
"@+	c #B9D8F0",
"#+	c #B6D5ED",
"$+	c #BBDDF7",
"%+	c #B0D4EC",
"&+	c #C2ECC3",
"*+	c #C5EDC6",
"=+	c #C0E5C2",
"-+	c #C9EECA",
";+	c #C4E5C5",
">+	c #C5E5C7",
",+	c #D3F1D4",
"'+	c #D7E1C9",
")+	c #265ABF",
"!+	c #9FC3E3",
"~+	c #C2E0F8",
"{+	c #BBD8EE",
"]+	c #BEDEF6",
"^+	c #B5D2E9",
"/+	c #B8D8F0",
"(+	c #BADDF6",
"_+	c #222622",
":+	c #C5EDC7",
"<+	c #BEE1C0",
"[+	c #C9ECCB",
"}+	c #CAEACB",
"|+	c #D0F0D2",
"1+	c #CBE8CC",
"2+	c #D3B19D",
"3+	c #CE2B27",
"4+	c #48703D",
"5+	c #3C8245",
"6+	c #89B8AB",
"7+	c #C0DFF8",
"8+	c #BBDBF4",
"9+	c #B2D2EA",
"0+	c #B8DBF6",
"a+	c #606E7A",
"b+	c #C2E9C3",
"c+	c #C1E5C2",
"d+	c #C1E4C3",
"e+	c #CBEDCD",
"f+	c #CBEACC",
"g+	c #D2D0B6",
"h+	c #CF554B",
"i+	c #CD0F0F",
"j+	c #E37070",
"k+	c #DDCDC3",
"l+	c #759E71",
"m+	c #317934",
"n+	c #509160",
"o+	c #A9CFD7",
"p+	c #BAD7EE",
"q+	c #B3D3EB",
"r+	c #5F6D77",
"s+	c #C3E9C4",
"t+	c #C4E6C6",
"u+	c #CCEFCE",
"v+	c #CEDDC0",
"w+	c #CD685C",
"x+	c #CB0E0C",
"y+	c #DA4B4B",
"z+	c #EFBBBB",
"A+	c #FFE6E6",
"B+	c #F7E0E0",
"C+	c #C4C6B4",
"D+	c #4D874C",
"E+	c #347D3B",
"F+	c #79AB97",
"G+	c #BCDDF4",
"H+	c #606E78",
"I+	c #C7EEC8",
"J+	c #C5E5C5",
"K+	c #CE9A85",
"L+	c #CD1E1A",
"M+	c #D32A2A",
"N+	c #EE9A9A",
"O+	c #FEE1E1",
"P+	c #FCE0E0",
"Q+	c #F2D9D9",
"R+	c #FEE3E3",
"S+	c #F1DCD8",
"T+	c #86A37D",
"U+	c #2F7832",
"V+	c #4E905E",
"W+	c #9DC7CB",
"X+	c #616F7A",
"Y+	c #CCC3A7",
"Z+	c #CB3931",
"`+	c #CF1212",
" @	c #E77A7A",
".@	c #F9D7D7",
"+@	c #F5D7D7",
"@@	c #FBDCDC",
"#@	c #F6D8D8",
"$@	c #F8D9D9",
"%@	c #FADBDB",
"&@	c #CDC6B6",
"*@	c #5A8C56",
"=@	c #2E7934",
"-@	c #6CA488",
";@	c #B4D8EC",
">@	c #626F7A",
",@	c #380906",
"'@	c #592A28",
")@	c #CC594C",
"!@	c #CE1110",
"~@	c #DC5151",
"{@	c #F0BABA",
"]@	c #FFDBDB",
"^@	c #FAD7D7",
"/@	c #EFCFCF",
"(@	c #F7D5D5",
"_@	c #F0D2CF",
":@	c #9AA989",
"<@	c #367B38",
"[@	c #3E8549",
"}@	c #477151",
"|@	c #224E25",
"1@	c #250D09",
"2@	c #CF0403",
"3@	c #CC0303",
"4@	c #D11D1D",
"5@	c #F3A6A6",
"6@	c #FED7D7",
"7@	c #FDD6D6",
"8@	c #F5D0D0",
"9@	c #F2CECE",
"0@	c #FAD4D4",
"a@	c #FCD5D5",
"b@	c #D8C5B9",
"c@	c #558B54",
"d@	c #2B772F",
"e@	c #2C7930",
"f@	c #225025",
"g@	c #BD100B",
"h@	c #CB0101",
"i@	c #C60909",
"j@	c #987474",
"k@	c #DCBABB",
"l@	c #FDD2D2",
"m@	c #F7CECE",
"n@	c #F6CDCD",
"o@	c #FAD0D0",
"p@	c #F5CCCC",
"q@	c #FCD2D2",
"r@	c #F8CECE",
"s@	c #FCD1D1",
"t@	c #D8B7B8",
"u@	c #788376",
"v@	c #2C7330",
"w@	c #2B752F",
"x@	c #2C7830",
"y@	c #132814",
"z@	c #75312D",
"A@	c #C71A13",
"B@	c #7D140E",
"C@	c #4C1312",
"D@	c #31292B",
"E@	c #444344",
"F@	c #8B8080",
"G@	c #E0BBBB",
"H@	c #FFD0D0",
"I@	c #FACDCD",
"J@	c #F0C6C6",
"K@	c #F5CACA",
"L@	c #FED0D0",
"M@	c #DDB8B8",
"N@	c #867C7C",
"O@	c #373C37",
"P@	c #2E402F",
"Q@	c #1A3B1C",
"R@	c #275429",
"S@	c #225224",
"T@	c #141414",
"U@	c #1D1D1D",
"V@	c #847575",
"W@	c #E1B7B7",
"X@	c #FAC9C9",
"Y@	c #FECCCC",
"Z@	c #FDCBCB",
"`@	c #F0C2C2",
" #	c #E3BABA",
".#	c #847474",
"+#	c #201F1F",
"@#	c #816F6F",
"##	c #E9B9B9",
"$#	c #F5C2C2",
"%#	c #FBC6C6",
"&#	c #F0BFBF",
"*#	c #867373",
"=#	c #202020",
"-#	c #756060",
";#	c #E9B6B6",
">#	c #F4BEBE",
",#	c #7B6666",
"'#	c #363636",
")#	c #4D4C4C",
"                              .                             ",
"                            + @ #                           ",
"                            $ % &                           ",
"                            * % = -                         ",
"                          ; > % , '                         ",
"                      ) ! ~ { ] ^ / ( _                     ",
"                  : < [ } | 1 2 ^ 3 4 5 6 7                 ",
"              8 9 0 a b c d e 2 f g h i j k l m             ",
"          n o p q r s t u v w ] x y z A B C D E F G         ",
"          H I J K L M N O P Q 2 R S T U V W C X Y Z         ",
"        `  ...+.@.#.$.{ %.&.*.2 =.-.;.>.4 ,.'.X D ).        ",
"        !.~.{.].^./.(._.:.<.[.] }.|.1.2./ i 3.4.5.).        ",
"        6.7.8.9.b 0.a.b.c.d.e.2 f.g.h.;.i.j.i k.l.m.        ",
"        !.n.o.p.q.r.s.w t.u.v.2 w.x.y.S z./ A.j B.C.        ",
"        !.D.E.F.G.H.I.Q J.K.L.] M.N.O.P.;.Q.R.S.W T.        ",
"        ` 9.U.V.| W.X.*.Y.Z.`.2  +.+++@+#+$+3 4 %+m.        ",
"        ` &+*+=+-+;+>+[.K.,+'+)+!+~+{+]+^+/+(+h i T.        ",
"        _+b :+<+b.[+}+|+1+2+3+4+5+6+{+7+O.8+T 9+0+a+        ",
"        _+b+c+d+w e+f+g+h+i+j+k+l+m+n+o+p+P.S q+4 r+        ",
"        ` s+1 t+u+v+w+x+y+z+A+A+B+C+D+E+F+G+P.T 3 H+        ",
"        _+I+_.J+K+L+M+N+O+P+Q+Q+P+R+S+T+U+V+W+;.2.X+        ",
"        _+1 Y+Z+`+ @.@+@@@#@$@$@#@@@+@%@&@*@=@-@;@>@        ",
"      ,@'@)@!@~@{@]@]@^@/@(@]@]@(@/@^@]@]@_@:@<@[@}@|@      ",
"    1@2@3@4@5@6@7@8@9@0@6@a@9@9@a@6@0@9@8@7@6@b@c@d@e@f@    ",
"    g@h@i@j@k@l@m@n@o@p@q@n@r@r@n@q@p@o@n@m@s@t@u@v@w@x@y@  ",
"  z@A@B@C@D@E@F@G@H@H@I@J@K@L@L@K@J@I@H@H@M@N@E@O@P@Q@R@S@T@",
"                U@V@W@X@Y@Z@`@`@Z@Y@X@ #.#U@                ",
"                    +#@###$#%#%#$#&#*#=#                    ",
"                          -#;#>#,#                          ",
"                            '#)#                            "};
