/* XPM */
static char * raweditor_xpm[] = {
"16 16 34 1",
" 	c None",
".	c #499EE5",
"+	c #58AAE7",
"@	c #5EB3EB",
"#	c #4BA3E7",
"$	c #489BE5",
"%	c #72B6EB",
"&	c #4F9DE5",
"*	c #54AAE9",
"=	c #76BBEC",
"-	c #5BABE9",
";	c #71B5EA",
">	c #4E9AE5",
",	c #50A2E6",
"'	c #58A5E7",
")	c #57A7E7",
"!	c #79B8EC",
"~	c #58A5E6",
"{	c #75B2E9",
"]	c #5199E3",
"^	c #559FE5",
"/	c #6AAAE8",
"(	c #488EE0",
"_	c #4B95E2",
":	c #5299E2",
"<	c #3D80DC",
"[	c #65A3E5",
"}	c #4584DD",
"|	c #4A92E2",
"1	c #68A8E7",
"2	c #3977D9",
"3	c #4B89DE",
"4	c #4F94E1",
"5	c #3C7DDC",
"                ",
"                ",
"                ",
"                ",
"                ",
"     .+  @#     ",
"    $%&  *=$    ",
"   -;>    ,;'   ",
"  )!~      ~{]  ",
"   ^/(    _/:   ",
"    <[}  |1<    ",
"     23  45     ",
"                ",
"                ",
"                ",
"                "};
