/* XPM */
static char * srtm_xpm[] = {
"32 32 18 1",
" 	c None",
".	c #FEFEFE",
"+	c #D7D7D7",
"@	c #575757",
"#	c #E7E7E7",
"$	c #010101",
"%	c #373737",
"&	c #979797",
"*	c #878787",
"=	c #171717",
"-	c #A7A7A7",
";	c #474747",
">	c #FFFFFF",
",	c #B7B7B7",
"'	c #272727",
")	c #676767",
"!	c #777777",
"~	c #C8C8C8",
"                                ",
"               ..               ",
"               +@#              ",
"               +$%+             ",
"               &@*=-.           ",
"               ;&>-=*.          ",
"              .=->>,=;#         ",
"              #$#>>>#;*         ",
"              ,'>>>>>%,         ",
"              )'>>>>>;          ",
"              =!>>>>&)          ",
"              =~>>>>;~          ",
"             +=.>>>#==-         ",
"           #+*$>>>>,%-'+        ",
"          +=$$=,.>>@->&=#       ",
"          =&.+-$@.>'+>>@*       ",
"         ~=.>>>+''-%.>>!*       ",
"         ~=>>>>>.%=*>>>@!       ",
"         ~$#>>>>>+$,>>~=-       ",
"          =->+%#>>*;#)$%.       ",
"          *=*$)>>>~$=@,=-       ",
"          #'$->>>>>'). ,=~      ",
"         +'%=&>>>>>;*   *,      ",
"         .-+'$&.>>.'~           ",
"           *@,$'*~)'#           ",
"           ;!>#)$;)+            ",
"           %->>+$+              ",
"           %!.>-;               ",
"           .=*.%&               ",
"            -$~$+               ",
"             *='                ",
"              ;)                "};
