/* XPM */
static char * template_xpm[] = {
"16 16 32 1",
" 	c None",
".	c #F6567C",
"+	c #E95175",
"@	c #100508",
"#	c #000000",
"$	c #2E1017",
"%	c #D54A6B",
"&	c #070203",
"*	c #CD4767",
"=	c #210B11",
"-	c #CF4868",
";	c #AE3D58",
">	c #F5557B",
",	c #C54563",
"'	c #301018",
")	c #080304",
"!	c #ED5277",
"~	c #C44463",
"{	c #37131C",
"]	c #EB5276",
"^	c #F2547A",
"/	c #7D2B3F",
"(	c #B43F5A",
"_	c #9E374F",
":	c #8D3147",
"<	c #E85175",
"[	c #D04869",
"}	c #EE5378",
"|	c #1B090D",
"1	c #491924",
"2	c #331119",
"3	c #602130",
"................",
"................",
"..+@########$...",
"..%#########&...",
"..*#=-;##--##>..",
"..,#'.-##..)#!..",
"..~#{.-##..@#]..",
"..^/(.-##.._:...",
"......-##.......",
"......-##.......",
"......-##.......",
"....<-;##-[}....",
"....|######1....",
"....2######3....",
"................",
"................"};
